<?xml version="1.0" encoding="UTF-8" standalone="no"?>
<!-- Creator: CorelDRAW X7 -->

<svg
   xml:space="preserve"
   width="3.79757in"
   height="1.4119999in"
   version="1.1"
   style="clip-rule:evenodd;fill-rule:evenodd;image-rendering:optimizeQuality;shape-rendering:geometricPrecision;text-rendering:geometricPrecision"
   viewBox="0 0 3018 1122"
   id="svg5"
   xmlns="http://www.w3.org/2000/svg"
   xmlns:svg="http://www.w3.org/2000/svg">
 <defs
   id="defs1"><style
     type="text/css"
     id="style1">
   <![CDATA[
    .fil1 {fill:#005B96}
    .fil2 {fill:#6497B1}
    .fil0 {fill:#F0F0F0;fill-rule:nonzero}
   ]]>
  </style></defs>
 <g
   id="Layer_x0020_1">
  <metadata
   id="CorelCorpID_0Corel-Layer" />
  
  
  
  
  
  
  
  
  
  
 <rect
   style="fill:#ffffff;fill-opacity:1;stroke:#ffffff;stroke-width:12.4175;stroke-opacity:1"
   id="rect1"
   width="3468.6162"
   height="1734.3081"
   x="-347.68945"
   y="-231.86441" /><path
   style="fill:#0075a1;fill-opacity:1;stroke:#000000;stroke-width:15.9988;stroke-dasharray:none;stroke-opacity:1"
   d="m 194.29007,882.98837 2.07205,-153.65593 181.54221,-169.53167 -176.55517,-181.67705 4.68903,-152.72743 148.35459,3.72681 174.7993,181.64334 178.89153,-168.70428 154.6519,-4.05665 -4.75649,156.23917 L 677.2979,564.67114 850.34133,746.2808 846.58079,896.39124 701.73796,892.73184 524.25427,713.67174 347.01748,887.6774 Z"
   id="path2-9" /><path
   style="fill:#313131;fill-opacity:0.729805;stroke:#000000;stroke-width:15.9988;stroke-dasharray:none;stroke-opacity:1"
   d="M 526.69609,96.344754 635.97627,204.38309 632.2508,452.74711 885.58209,451.50528 992.37862,560.78544 886.82391,665.09832 H 634.73445 L 632.2508,910.97869 527.93791,1025.2261 418.65775,913.46234 421.14141,665.09832 170.29374,663.85652 64.739055,557.05999 167.81011,455.23076 419.89958,451.50528 417.41593,203.14129 Z"
   id="path1" /><text
   xml:space="preserve"
   style="font-style:normal;font-variant:normal;font-weight:normal;font-stretch:normal;font-size:604.522px;font-family:'Ramadhan Mubarok';-inkscape-font-specification:'Ramadhan Mubarok, Normal';font-variant-ligatures:normal;font-variant-caps:normal;font-variant-numeric:normal;font-variant-east-asian:normal;text-align:start;writing-mode:lr-tb;direction:ltr;text-anchor:start;fill:#000000;fill-opacity:1;stroke:none;stroke-width:12.4175;stroke-dasharray:none;stroke-opacity:1"
   x="1073.7357"
   y="751.39606"
   id="text5"
   transform="scale(0.98378486,1.0164824)"><tspan
     id="tspan5"
     style="font-style:normal;font-variant:normal;font-weight:normal;font-stretch:normal;font-size:604.522px;font-family:'Ramadhan Mubarok';-inkscape-font-specification:'Ramadhan Mubarok, Normal';font-variant-ligatures:normal;font-variant-caps:normal;font-variant-numeric:normal;font-variant-east-asian:normal;fill:#000000;fill-opacity:1;stroke:none;stroke-width:12.4175;stroke-dasharray:none;stroke-opacity:1"
     x="1073.7357"
     y="751.39606">Arabesque</tspan></text></g>
</svg>
