<?xml version="1.0" encoding="UTF-8" standalone="no"?>
<!-- Creator: CorelDRAW X7 -->

<svg
   xml:space="preserve"
   width="48"
   height="48"
   version="1.1"
   style="clip-rule:evenodd;fill-rule:evenodd;image-rendering:optimizeQuality;shape-rendering:geometricPrecision;text-rendering:geometricPrecision"
   viewBox="0 0 397.35936 397.30881"
   id="svg24"
   sodipodi:docname="favicon.svg"
   inkscape:version="1.4.2 (f4327f4, 2025-05-13)"
   xmlns:inkscape="http://www.inkscape.org/namespaces/inkscape"
   xmlns:sodipodi="http://sodipodi.sourceforge.net/DTD/sodipodi-0.dtd"
   xmlns="http://www.w3.org/2000/svg"
   xmlns:svg="http://www.w3.org/2000/svg"><sodipodi:namedview
   id="namedview26"
   pagecolor="#ffffff"
   bordercolor="#666666"
   borderopacity="1.0"
   inkscape:showpageshadow="2"
   inkscape:pageopacity="0.0"
   inkscape:pagecheckerboard="0"
   inkscape:deskcolor="#d1d1d1"
   inkscape:document-units="in"
   showgrid="false"
   inkscape:zoom="3.4177557"
   inkscape:cx="42.718091"
   inkscape:cy="62.321599"
   inkscape:window-width="1722"
   inkscape:window-height="824"
   inkscape:window-x="61"
   inkscape:window-y="25"
   inkscape:window-maximized="0"
   inkscape:current-layer="Layer_x0020_1" />
 <defs
   id="defs4">
  <style
   type="text/css"
   id="style2">
   <![CDATA[
    .fil1 {fill:#005B96}
    .fil2 {fill:#6497B1}
    .fil0 {fill:#F0F0F0;fill-rule:nonzero}
   ]]>
  </style>
 </defs>
 <g
   id="Layer_x0020_1"
   inkscape:label="Layer 1"
   inkscape:groupmode="layer">
  <metadata
   id="CorelCorpID_0Corel-Layer" />
  
  
  
  
  
  
  
  
  
  
 <g
   id="layer1"
   transform="matrix(1.03479,0,0,1.03479,-173.84158,-173.91099)"><path
     style="fill:#0075a1;fill-opacity:1;stroke:#000000;stroke-width:6;stroke-dasharray:none;stroke-opacity:1"
     d="m 234.64279,480.79446 0.77708,-57.62536 68.08351,-63.57922 -66.21323,-68.13408 1.75852,-57.27715 55.63721,1.39766 65.55473,68.12144 67.08943,-63.26892 57.99888,-1.52136 -1.78382,58.59415 -67.76058,63.91479 64.89623,68.10881 -1.41031,56.2957 -54.3202,-1.37238 -66.56145,-67.15265 -66.46886,65.25709 z"
     id="path2" /><path
     style="fill:#000000;fill-opacity:0.358566;stroke:#000000;stroke-width:6;stroke-dasharray:none;stroke-opacity:1"
     d="m 359.30454,185.78064 40.98319,40.51746 -1.39716,93.1436 95.00647,-0.46572 40.05175,40.98318 -39.58603,39.12031 h -94.54075 l -0.93144,92.21216 -39.12031,42.84606 -40.98318,-41.91462 0.93144,-93.1436 -94.07504,-0.46571 -39.58602,-40.05175 38.65459,-38.18887 94.54075,-1.39716 -0.93144,-93.14359 z"
     id="path1" /></g></g>
</svg>
